# xmcd CD database file
#
# Track frame offsets:
#	150
#	1528
#	17083
#	35546
#	52885
#	64683
#	80983
#	93817
#	112354
#	126302
#	138998
#	159399
#	180097
#	197130
#	218217
#
# Disc length: 3157 seconds
#
# Revision: 2
# Processed by: cddbd v1.4b41PL1 Copyright (c) Steve Scherf et al.
# Submitted via: Feurio! 1.50.2ß - http://www.feurio.com
#
DISCID=c30c530f
DTITLE=Blue Louie - Livin' In Texas
DYEAR=1900
DGENRE=
TTITLE0=The Benediction
TTITLE1=Livin' In Texas
TTITLE2=Have Our Day
TTITLE3=If You Need Me
TTITLE4=4th Of July
TTITLE5=Wicked Moon
TTITLE6=Walk Of Shame
TTITLE7=Delphine
TTITLE8=Lovin' You
TTITLE9=Caddo-9
TTITLE10=Chicken Man
TTITLE11=I Won't Lie
TTITLE12=Home
TTITLE13=Power to the People
TTITLE14=Mexico Revisited
EXTD=
EXTT0=
EXTT1=
EXTT2=
EXTT3=
EXTT4=
EXTT5=
EXTT6=
EXTT7=
EXTT8=
EXTT9=
EXTT10=
EXTT11=
EXTT12=
EXTT13=
EXTT14=
PLAYORDER=
